{"title":"Raman Raghav 2.0 (2016) Tiny 1080p Blu-ray x264 AAC 5.1 ESub -DD","uid":15759490,"size":3171393032,"categoryP":"video","categoryS":"hd___movies","magnet":"?xt=urn:btih:eec27178082d6085f723e9502e6861e67e1c5561&amp;dn=Raman+Raghav+2.0+%282016%29+Tiny+1080p+Blu-ray+x264+AAC+5.1+ESub+-DD&amp;tr=udp%3A%2F%2Ftracker.leechers-paradise.org%3A6969&amp;tr=udp%3A%2F%2Fzer0day.ch%3A1337&amp;tr=udp%3A%2F%2Fopen.demonii.com%3A1337&amp;tr=udp%3A%2F%2Ftracker.coppersurfer.tk%3A6969&amp;tr=udp%3A%2F%2Fexodus.desync.com%3A6969","seeders":2,"leechers":11,"uploader":"SaM","files":3,"time":1473094777,"description":"** Raman Raghav - 2.0 **\r\n\r\n** 2016**\r\n\r\n** Tiny 1080p / Blu-ray / x264\r\n\r\nHindi AAC 5.1 **\r\n\r\n** English Subtitle(s) **\r\n\r\n\r\n\r\n[ SCREENS ]\r\n \nhttp://extraimago.com/image/wQKg \nhttp://extraimago.com/image/wQKX \nhttp://extraimago.com/image/wQKP \nhttp://extraimago.com/image/wQKG \nhttp://extraimago.com/image/wQKr \nhttp://extraimago.com/image/wQKp \nhttp://extraimago.com/image/wQKY \nhttp://extraimago.com/image/wQKC \nhttp://extraimago.com/image/wQKB \nhttp://extraimago.com/image/wQK4 \nhttp://extraimago.com/image/wQKe \nhttp://extraimago.com/image/wQKZ\r\n\r\n[ Info ]\r\n\r\nSource : BD50 @ DDR\r\nGeneral\r\nFormat : Matroska\r\nFile size : 2.93 GiB\r\nDuration : 2 h 13 min\r\nOverall bit rate : 3 145 kb/s\r\n\r\nVideo\r\nFormat : AVC\r\nFormat/Info : Advanced Video Codec\r\nFormat profile :   \r\nFormat settings, CABAC : Yes\r\nFormat settings, ReFrames : 5 frames\r\nCodec ID : V_MPEG4/ISO/AVC\r\nDuration : 2 h 13 min\r\nBit rate : 2 949 kb/s\r\nWidth : 1 920 pixels\r\nHeight : 800 pixels\r\nDisplay aspect ratio : 2.40:1\r\nFrame rate mode : Constant\r\nFrame rate : 24.000 FPS\r\ncolor space : YUV\r\nChroma subsampling : 4:2:0\r\nBit depth : 8 bits\r\nScan type : Progressive\r\nBits/(Pixel*Frame) : 0.080\r\nStream size : 2.75 GiB (94%)\r\nDefault : Yes\r\nForced : No\r\ncolor range : Limited\r\ncolor primaries : BT.709\r\nTransfer characteristics : BT.709\r\nMatrix coefficients : BT.709\r\n\r\nAudio\r\nFormat : AAC\r\nFormat/Info : Advanced Audio Codec\r\nFormat profile : LC\r\nCodec ID : A_AAC\r\nDuration : 2 h 13 min\r\nBit rate : 192 kb/s\r\nChannel(s) : 6 channels\r\nChannel positions : Front: L C R, Side: L R, LFE\r\nSampling rate : 48.0 kHz\r\nFrame rate : 46.875 FPS (1024 spf)\r\nCompression mode : Lossy\r\nDelay relative to video : 9 ms\r\nStream size : 183 MiB (6%)\r\nLanguage : Hindi\r\nDefault : Yes\r\nForced : No\r\n\r\nChapters : YES\r\n\r\n[ A DDR Exclusive Release !!! ]","torrent":{"xt":"urn:btih:eec27178082d6085f723e9502e6861e67e1c5561","amp;dn":"Raman+Raghav+2.0+%282016%29+Tiny+1080p+Blu-ray+x264+AAC+5.1+ESub+-DD","amp;tr":["udp%3A%2F%2Ftracker.leechers-paradise.org%3A6969","udp%3A%2F%2Fzer0day.ch%3A1337","udp%3A%2F%2Fopen.demonii.com%3A1337","udp%3A%2F%2Ftracker.coppersurfer.tk%3A6969","udp%3A%2F%2Fexodus.desync.com%3A6969"],"infoHash":"eec27178082d6085f723e9502e6861e67e1c5561","infoHashBuffer":{"type":"Buffer","data":[238,194,113,120,8,45,96,133,247,35,233,80,46,104,97,230,126,28,85,97]},"announce":[],"urlList":[]}}